<svg width="24" height="23" viewBox="0 0 24 23" fill="none" xmlns="http://www.w3.org/2000/svg">
<path d="M1.60031 0.270759C1.06381 0.270759 0.628883 0.705682 0.628883 1.24219C0.628883 1.77869 1.06381 2.21362 1.60031 2.21362V0.270759ZM4.08389 1.24219L5.02154 0.988241C4.90686 0.564793 4.5226 0.270759 4.08389 0.270759V1.24219ZM8.11971 16.1437L7.18206 16.3976C7.30861 16.8649 7.75986 17.1677 8.2402 17.1076L8.11971 16.1437ZM20.5376 14.5914L20.6581 15.5554C21.0707 15.5038 21.4047 15.1954 21.4889 14.7883L20.5376 14.5914ZM22.4003 5.58846L23.3516 5.78527C23.4108 5.49917 23.3381 5.20162 23.1536 4.97507C22.9691 4.74852 22.6925 4.61703 22.4003 4.61703V5.58846ZM5.26101 5.58846L4.32336 5.8424L5.26101 5.58846ZM1.60031 1.24219V2.21362H4.08389V1.24219V0.270759H1.60031V1.24219ZM8.11971 16.1437L8.2402 17.1076L20.6581 15.5554L20.5376 14.5914L20.4171 13.6275L7.99922 15.1798L8.11971 16.1437ZM20.5376 14.5914L21.4889 14.7883L23.3516 5.78527L22.4003 5.58846L21.449 5.39164L19.5863 14.3946L20.5376 14.5914ZM4.08389 1.24219L3.14624 1.49613L4.32336 5.8424L5.26101 5.58846L6.19866 5.33451L5.02154 0.988241L4.08389 1.24219ZM5.26101 5.58846L4.32336 5.8424L7.18206 16.3976L8.11971 16.1437L9.05736 15.8897L6.19866 5.33451L5.26101 5.58846ZM22.4003 5.58846V4.61703H5.26101V5.58846V6.55989H22.4003V5.58846ZM12.0003 20.2084H11.0289C11.0289 20.5694 10.7363 20.862 10.3753 20.862V21.8334V22.8048C11.8093 22.8048 12.9717 21.6424 12.9717 20.2084H12.0003ZM10.3753 21.8334V20.862C10.0144 20.862 9.72174 20.5694 9.72174 20.2084H8.75031H7.77888C7.77888 21.6424 8.94134 22.8048 10.3753 22.8048V21.8334ZM8.75031 20.2084H9.72174C9.72174 19.8474 10.0144 19.5548 10.3753 19.5548V18.5834V17.612C8.94134 17.612 7.77888 18.7744 7.77888 20.2084H8.75031ZM10.3753 18.5834V19.5548C10.7363 19.5548 11.0289 19.8474 11.0289 20.2084H12.0003H12.9717C12.9717 18.7744 11.8093 17.612 10.3753 17.612V18.5834ZM20.667 20.2084H19.6955C19.6955 20.5694 19.4029 20.862 19.042 20.862V21.8334V22.8048C20.4759 22.8048 21.6384 21.6424 21.6384 20.2084H20.667ZM19.042 21.8334V20.862C18.681 20.862 18.3884 20.5694 18.3884 20.2084H17.417H16.4455C16.4455 21.6424 17.608 22.8048 19.042 22.8048V21.8334ZM17.417 20.2084H18.3884C18.3884 19.8474 18.681 19.5548 19.042 19.5548V18.5834V17.612C17.608 17.612 16.4455 18.7744 16.4455 20.2084H17.417ZM19.042 18.5834V19.5548C19.4029 19.5548 19.6955 19.8474 19.6955 20.2084H20.667H21.6384C21.6384 18.7744 20.4759 17.612 19.042 17.612V18.5834Z" fill="#4A5568"/>
</svg>
