<svg width="106" height="18" viewBox="0 0 106 18" fill="none" xmlns="http://www.w3.org/2000/svg">
<path d="M9.68071 9.13677C7.83159 9.50387 6.28159 9.93896 5.03071 10.4284C4.2829 11.5298 3.45352 12.8486 2.55615 14.385L1.9035 15.5271C1.79473 15.7311 1.61798 16.0302 1.37324 16.4109C1.11491 16.8596 0.842989 17.0771 0.557462 17.0771C0.4079 17.0771 0.271924 17.0227 0.163152 16.9004C0.0543794 16.7916 0 16.6828 0 16.5469C0 16.3157 0.299121 15.6767 0.910964 14.6026C1.25088 14.0179 1.75394 13.2021 2.43377 12.1416C2.6921 11.7337 2.89606 11.3938 3.05922 11.1355C2.56974 11.2714 2.12105 11.4346 1.71315 11.6113C1.5228 11.7065 1.35964 11.7473 1.22368 11.7473C1.06052 11.7473 0.938153 11.6793 0.842977 11.5298C0.774995 11.4346 0.747813 11.3394 0.747813 11.217C0.747813 10.9451 0.84299 10.7412 1.04694 10.6324C1.35966 10.442 1.9307 10.2109 2.76009 9.96615C3.37193 9.7758 3.86142 9.58545 4.21493 9.42229C4.39168 9.20475 4.84035 8.5929 5.56097 7.54597C5.87369 7.09729 6.75747 6.03676 8.1987 4.36439C9.24563 3.1407 10.3197 1.99859 11.4211 0.951663C12.0601 0.326223 12.5632 0.0270996 12.9031 0.0270996C13.1206 0.0270996 13.2974 0.108677 13.4605 0.285432C13.5965 0.434993 13.6509 0.611749 13.6509 0.802101C13.6509 1.03324 13.5421 1.42754 13.311 1.9986C12.9167 3.00474 12.5496 4.07886 12.1825 5.20737C11.8697 6.21352 11.6658 6.98852 11.557 7.53238C11.7066 7.53238 11.8018 7.53238 11.8562 7.53238C12.0873 7.53238 12.2912 7.53238 12.4408 7.53238C12.9167 7.53238 13.1478 7.70913 13.1478 8.07623C13.1478 8.2258 13.0934 8.38895 12.9983 8.53852C12.9031 8.68808 12.7807 8.78325 12.6448 8.81045C12.5904 8.82404 12.468 8.83764 12.2369 8.83764C11.7746 8.83764 11.4211 8.86484 11.2035 8.91922C11.0132 9.50387 10.7005 10.9723 10.279 13.3517C10.0614 14.9289 9.95265 15.9078 9.96625 16.2613C9.96625 16.846 9.7895 17.1451 9.43599 17.1451C9.16406 17.1451 8.9465 17.0091 8.78334 16.7236C8.67457 16.5333 8.6066 16.2613 8.6066 15.935C8.6066 14.8065 8.81055 13.2973 9.20485 11.3938C9.4088 10.4284 9.55836 9.69422 9.65353 9.17755L9.68071 9.13677ZM10.0342 7.8179C10.1022 7.58676 10.2926 6.94773 10.5917 5.92799C10.6597 5.65606 10.85 5.12579 11.1491 4.3236C11.4483 3.49421 11.693 2.84158 11.8698 2.33851C11.3395 2.69202 10.7956 3.1543 10.2518 3.73895C8.33466 5.80562 6.97502 7.50518 6.18642 8.81045C6.48554 8.74247 7.13817 8.55212 8.13071 8.26659C8.41624 8.18501 9.04168 8.03545 10.0206 7.8315L10.0342 7.8179Z" fill="#060606"/>
<path d="M24.1066 0C24.6505 0 25.0719 0.190352 25.3711 0.584651C25.6022 0.89737 25.7246 1.26448 25.7246 1.71316C25.7246 2.50176 25.4663 3.39913 24.936 4.41887C24.4737 5.28904 23.8891 6.07764 23.1956 6.77106C22.7334 7.21975 22.3798 7.4373 22.1215 7.4373C21.9447 7.4373 21.7952 7.35572 21.6456 7.17896C21.5369 7.0566 21.4825 6.92063 21.4825 6.75747C21.4825 6.47194 21.7272 6.14563 22.2303 5.77852C22.9373 5.26185 23.4947 4.6908 23.9026 4.06536C24.5145 3.16799 24.8136 2.40658 24.8136 1.79474C24.8136 1.53641 24.7592 1.35965 24.6505 1.23728C24.5417 1.11491 24.3785 1.06053 24.161 1.06053C23.7123 1.06053 23.0733 1.38684 22.2575 2.03948C21.3193 2.77369 20.3268 3.76624 19.2934 5.03071C17.961 6.6351 16.9548 8.2123 16.2614 9.7759C15.5408 11.3939 15.1873 12.7671 15.1873 13.9092C15.1873 14.4531 15.3504 14.9154 15.6632 15.2961C16.0167 15.7312 16.4382 15.9487 16.9412 15.9487C17.825 15.9487 18.9263 15.2689 20.2724 13.8956C20.6667 13.4741 21.1562 12.8759 21.7272 12.0873C22.1079 11.5842 22.3391 11.2171 22.4478 11.0132C22.5702 10.782 22.7197 10.6597 22.8829 10.6597C23.0597 10.6597 23.1548 10.7413 23.1548 10.918C23.1548 11.2851 22.6926 12.1145 21.7816 13.3926C21.0202 14.4667 20.1908 15.3369 19.2798 16.0031C18.2601 16.7645 17.2811 17.1452 16.3702 17.1452C15.4592 17.1452 14.6842 16.7237 14.1539 15.8671C13.814 15.3233 13.6509 14.6978 13.6509 13.9908C13.6509 12.2369 14.4803 10.007 16.139 7.32853C17.5531 5.04431 19.0487 3.20878 20.6259 1.82193C21.9855 0.62544 23.1548 0.0271937 24.1202 0.0271937L24.1066 0Z" fill="#060606"/>
<path d="M30.6058 9.09619C31.272 9.09619 31.6119 9.50408 31.6119 10.3199C31.6119 11.4076 31.1088 12.7808 30.1027 14.4396C29.015 16.248 27.9544 17.1453 26.9347 17.1453C26.4588 17.1453 26.1189 16.9278 25.9014 16.4791C25.7926 16.2616 25.7246 15.9896 25.7246 15.6905C25.7246 14.6436 26.0781 13.5151 26.7987 12.2914C27.465 11.1629 28.2536 10.2791 29.1645 9.65365C29.6948 9.28654 30.1707 9.10979 30.6058 9.10979V9.09619ZM29.3277 13.719C29.1237 13.5558 29.0286 13.4335 29.0286 13.3383C29.0286 13.2703 29.1645 13.0936 29.4229 12.7944C30.1571 11.9651 30.5242 11.3124 30.5242 10.7958C30.5242 10.7278 30.497 10.6598 30.4562 10.6054C30.3882 10.483 30.293 10.4151 30.1571 10.4151C29.8987 10.4151 29.518 10.6734 29.015 11.1765C28.3623 11.8291 27.8593 12.4953 27.5193 13.1887C27.125 13.9773 26.9211 14.63 26.9211 15.1602C26.9211 15.2962 26.9619 15.4186 27.0299 15.5273C27.1387 15.6769 27.2746 15.7449 27.4378 15.7449C27.8321 15.7449 28.2536 15.4458 28.7022 14.8611C28.8926 14.6164 29.0557 14.358 29.1781 14.0997C29.3005 13.8414 29.3549 13.7054 29.3413 13.6918L29.3277 13.719Z" fill="#060606"/>
<path d="M36.493 9.09619C37.1592 9.09619 37.4991 9.50408 37.4991 10.3199C37.4991 11.4076 36.996 12.7808 35.9899 14.4396C34.9022 16.248 33.8416 17.1453 32.8219 17.1453C32.346 17.1453 32.0061 16.9278 31.7886 16.4791C31.6798 16.2616 31.6118 15.9896 31.6118 15.6905C31.6118 14.6436 31.9653 13.5151 32.6859 12.2914C33.3522 11.1629 34.1408 10.2791 35.0517 9.65365C35.582 9.28654 36.0579 9.10979 36.493 9.10979V9.09619ZM35.2285 13.719C35.0245 13.5558 34.9294 13.4335 34.9294 13.3383C34.9294 13.2703 35.0653 13.0936 35.3237 12.7944C36.0579 11.9651 36.425 11.3124 36.425 10.7958C36.425 10.7278 36.3978 10.6598 36.357 10.6054C36.289 10.483 36.1938 10.4151 36.0579 10.4151C35.7995 10.4151 35.4188 10.6734 34.9158 11.1765C34.2631 11.8291 33.7601 12.4953 33.4202 13.1887C33.0259 13.9773 32.8219 14.63 32.8219 15.1602C32.8219 15.2962 32.8627 15.4186 32.9307 15.5273C33.0395 15.6769 33.1754 15.7449 33.3386 15.7449C33.7329 15.7449 34.1544 15.4458 34.603 14.8611C34.7934 14.6164 34.9565 14.358 35.0789 14.0997C35.2013 13.8414 35.2557 13.7054 35.2421 13.6918L35.2285 13.719Z" fill="#060606"/>
<path d="M39.4572 13.107C39.2124 13.746 39.0357 14.2627 38.9133 14.6434C38.7909 15.0377 38.7366 15.3096 38.7366 15.4592C38.7366 15.6631 38.8317 15.7583 39.0357 15.7583C39.3212 15.7583 39.7019 15.4864 40.1778 14.9289C40.3953 14.657 40.7216 14.1811 41.1567 13.4741C41.3335 13.2021 41.5102 13.0526 41.7006 13.0526C41.9181 13.0526 42.0133 13.1478 42.0133 13.3517C42.0133 13.7052 41.6054 14.4122 40.8032 15.4728C39.9602 16.5877 39.1852 17.1451 38.4646 17.1451C38.1519 17.1451 37.9072 17.0092 37.7032 16.7508C37.5673 16.5605 37.4993 16.3293 37.4993 16.071C37.4993 15.6087 37.6352 14.9833 37.9208 14.1811C38.1927 13.3789 38.6142 12.3863 39.158 11.2306C40.5585 8.29379 41.9861 5.86002 43.4545 3.95651C44.6238 2.4201 45.5892 1.65869 46.3506 1.65869C46.5954 1.65869 46.7993 1.75387 46.9488 1.94422C47.112 2.13457 47.1936 2.35212 47.1936 2.59685C47.1936 3.73896 46.1739 5.64247 44.1344 8.29379C43.2234 9.47669 42.1357 10.6596 40.8576 11.8425C40.5177 12.1552 40.069 12.5631 39.4844 13.0934L39.4572 13.107ZM40.3138 11.1627C42.0133 9.70783 43.5225 7.8723 44.855 5.65607C45.5484 4.50037 45.8883 3.73896 45.8883 3.37186C45.8883 3.1951 45.8067 3.09992 45.6572 3.09992C45.2085 3.09992 44.3927 3.9973 43.2098 5.77844C42.2309 7.24686 41.2655 9.0416 40.3001 11.1627H40.3138Z" fill="#060606"/>
<path d="M51.1774 10.1429L51.0006 10.51C50.1576 12.264 49.5866 13.5284 49.3011 14.2763C48.866 15.4456 48.6076 16.139 48.5533 16.3293C48.3901 16.8732 48.159 17.1451 47.887 17.1451C47.6967 17.1451 47.5199 17.0499 47.384 16.8732C47.2616 16.7236 47.1936 16.5469 47.1936 16.3701C47.1936 15.6631 48.091 13.4605 49.8993 9.73502C49.573 9.49028 49.4098 9.24554 49.4098 9.00081C49.4098 8.81046 49.4914 8.6473 49.6546 8.51133C49.7905 8.40256 49.9401 8.33458 50.1033 8.33458C50.212 8.33458 50.3616 8.36177 50.5519 8.41616C51.8844 5.8872 52.6594 4.28282 52.8905 3.58939C52.6866 3.69817 52.4283 3.86133 52.1019 4.07887C51.9252 4.18764 51.762 4.25563 51.6261 4.25563C51.4765 4.25563 51.3405 4.17404 51.2454 4.02448C51.1774 3.91571 51.1502 3.80694 51.1502 3.69817C51.1502 3.31747 51.4765 2.90957 52.1427 2.46089C52.673 2.10738 53.1625 1.82185 53.6247 1.57711C53.6927 1.38676 53.7471 1.25079 53.7607 1.16922C53.8423 0.856496 53.9239 0.652549 54.0191 0.543777C54.1142 0.435005 54.2502 0.380615 54.4405 0.380615C54.8213 0.380615 55.0116 0.598161 55.0116 1.01965C55.5691 0.856495 56.0721 0.734126 56.5072 0.652547C56.9423 0.570968 57.3094 0.530178 57.6085 0.530178C58.3971 0.530178 59.0634 0.829304 59.6072 1.44115C60.1239 2.0122 60.3822 2.65124 60.3822 3.35826C60.3822 4.59554 59.8656 5.81922 58.8458 7.0565C57.9621 8.10344 56.8743 8.91923 55.5691 9.50388C54.4406 10.007 53.3256 10.2517 52.1971 10.2517C51.9252 10.2517 51.5853 10.2109 51.1774 10.1429ZM54.6037 2.67843C54.3318 3.48062 53.8967 4.51396 53.2848 5.77843C52.537 7.31484 52.0476 8.30738 51.83 8.78326C52.2787 8.86484 52.5914 8.90563 52.7682 8.90563C53.6927 8.90563 54.7805 8.52493 56.0177 7.77712C57.2142 7.04291 58.1524 6.13195 58.8322 5.05782C59.2537 4.39159 59.4577 3.80694 59.4577 3.30387C59.4577 2.84159 59.2945 2.48808 58.9818 2.25694C58.6691 2.0258 58.1932 1.90343 57.5542 1.90343C57.0783 1.90343 56.5888 1.97141 56.0993 2.09378C55.6099 2.21615 55.1068 2.4201 54.6037 2.67843Z" fill="#060606"/>
<path d="M63.958 14.5483C63.686 15.0242 63.4277 15.4185 63.1694 15.7448C62.6527 16.3839 62.1496 16.6966 61.6466 16.6966C61.2115 16.6966 60.858 16.4926 60.6132 16.0711C60.4637 15.7992 60.3821 15.4865 60.3821 15.1194C60.3821 14.2084 60.6676 13.2159 61.2387 12.1282C61.8777 10.9181 62.6391 9.9799 63.5365 9.32727C64.1211 8.90578 64.6922 8.68823 65.236 8.68823C65.576 8.68823 65.8615 8.797 66.0926 9.00095C66.283 9.1913 66.3917 9.39525 66.3917 9.63999C66.3917 9.81674 66.3238 10.0615 66.1878 10.3878C66.3102 10.5646 66.3781 10.7141 66.3781 10.8365C66.3781 11.0132 66.2694 11.2852 66.0382 11.6795C65.8071 12.0738 65.5624 12.604 65.3312 13.2703C65.0729 13.9773 64.9505 14.5347 64.9505 14.9562C64.9505 15.2961 65.0593 15.5817 65.2496 15.7992C65.304 15.8536 65.4808 15.9488 65.7527 16.0847C65.9566 16.1799 66.0518 16.3567 66.0518 16.6014C66.0518 16.751 65.9975 16.8869 65.8751 16.9821C65.7527 17.0909 65.6167 17.1453 65.4536 17.1453C65.0185 17.1453 64.6378 16.9549 64.3115 16.5606C64.0531 16.2479 63.9172 15.84 63.9172 15.3641C63.9172 15.201 63.9308 14.929 63.9716 14.5619L63.958 14.5483ZM65.4808 10.5238C65.3856 10.347 65.2768 10.211 65.1681 10.1295C65.0593 10.0479 64.9369 10.0071 64.8009 10.0071C64.1755 10.0071 63.5093 10.551 62.7887 11.6387C61.9865 12.8352 61.5922 13.8549 61.5922 14.6843C61.5922 14.8882 61.633 15.0378 61.7009 15.1466C61.7825 15.2554 61.8913 15.3097 62.0544 15.3097C62.4487 15.3097 62.8974 14.8882 63.4277 14.0589C63.7268 13.5966 64.0803 12.9303 64.5154 12.0466C64.801 11.4619 65.0049 11.0812 65.1409 10.8909C65.2088 10.7957 65.3176 10.6733 65.4944 10.5374L65.4808 10.5238Z" fill="#060606"/>
<path d="M69.2063 12.5631C70.0085 11.7065 70.9195 10.8771 71.9664 10.0613C72.3471 9.7622 72.7414 9.49026 73.1629 9.24553C73.3805 9.12316 73.5028 9.05518 73.5708 9.05518C73.6932 9.05518 73.8155 9.15035 73.9379 9.32711C74.0059 9.42228 74.0467 9.51746 74.0467 9.59904C74.0467 9.7486 73.8971 9.93895 73.5844 10.1973C72.755 10.8635 72.3335 11.353 72.3335 11.6929C72.3335 11.8833 72.4423 11.9784 72.6463 11.9784C72.9998 11.9784 73.598 11.6929 74.4546 11.1083C74.6042 11.0131 74.7265 10.9587 74.8217 10.9587C74.8897 10.9587 74.9577 10.9859 75.0121 11.0539C75.08 11.1218 75.1208 11.2034 75.1208 11.285C75.1208 11.5297 74.7809 11.9104 74.1011 12.4135C73.3805 12.9574 72.7006 13.2157 72.0616 13.2157C71.8033 13.2157 71.5585 13.1477 71.341 13.0118C71.1506 12.903 71.0555 12.699 71.0555 12.3999C71.0555 12.196 71.137 11.9648 71.3138 11.7065C70.6748 12.1688 69.9134 12.9438 69.0432 14.0587C68.5401 14.7385 68.037 15.5815 67.534 16.5876C67.3436 16.9683 67.1125 17.1451 66.8405 17.1451C66.5414 17.1451 66.3918 17.0091 66.3918 16.7236C66.3918 16.4381 66.623 15.7039 67.0989 14.4938C67.8059 12.699 68.5265 11.3122 69.3015 10.3197C69.7774 9.70781 70.1717 9.40869 70.4844 9.40869C70.5932 9.40869 70.6884 9.43588 70.7835 9.50386C70.8923 9.58544 70.9467 9.68062 70.9467 9.81658C70.9467 9.95255 70.8651 10.1157 70.7019 10.3333C70.6747 10.374 70.4572 10.646 70.0493 11.149C69.6822 11.6249 69.3967 12.1008 69.2063 12.5767V12.5631Z" fill="#060606"/>
<path d="M78.7919 9.27287C78.2616 10.1023 77.7722 11.0132 77.3235 12.033C76.6844 13.4878 76.3581 14.5619 76.3581 15.2825C76.3581 15.4865 76.3989 15.636 76.4805 15.7448C76.5621 15.8536 76.698 15.908 76.8612 15.908C77.2691 15.908 77.7586 15.5273 78.3432 14.7523C78.7103 14.2764 79.0366 13.8005 79.3222 13.3382C79.4717 13.0663 79.6485 12.9303 79.8253 12.9303C79.934 12.9303 80.0156 12.9711 80.0972 13.0391C80.1652 13.1071 80.1923 13.1887 80.1923 13.2567C80.1923 13.5558 79.7981 14.2356 79.0095 15.2689C78.0577 16.5198 77.2011 17.1453 76.4125 17.1453C75.991 17.1453 75.6511 16.9549 75.3792 16.5742C75.2024 16.3295 75.1208 15.9896 75.1208 15.5409C75.1208 14.5483 75.4064 13.4062 75.9774 12.0874C76.1134 11.761 76.4941 10.9724 77.1331 9.72156C76.9156 9.77595 76.7388 9.80314 76.6301 9.80314C76.4533 9.80314 76.3037 9.76235 76.1814 9.68077C76.0046 9.572 75.9095 9.42244 75.9095 9.25928C75.9095 9.05533 76.0318 8.89217 76.263 8.7698C76.3309 8.74261 76.6301 8.68823 77.1739 8.60665C77.3643 8.57945 77.6498 8.49787 78.0305 8.3755C78.316 7.85884 78.7783 7.16541 79.4174 6.28164C79.7709 5.79216 80.0292 5.47945 80.1652 5.32989C80.3555 5.12594 80.5323 5.03076 80.6818 5.03076C80.7906 5.03076 80.8994 5.08515 80.9946 5.20752C81.0897 5.31629 81.1441 5.42506 81.1441 5.52024C81.1441 5.73778 80.913 6.14568 80.4643 6.78471C80.1652 7.19261 79.934 7.51892 79.7981 7.77726C80.709 7.53252 81.348 7.41015 81.7423 7.41015C82.191 7.41015 82.4086 7.6005 82.4086 7.96761C82.4086 8.15796 82.327 8.29393 82.1774 8.3891C82.0959 8.44349 81.8783 8.48428 81.5384 8.51147C81.4024 8.51147 80.7906 8.66103 79.6893 8.97375C79.3902 9.06893 79.091 9.15051 78.7919 9.25928V9.27287Z" fill="#060606"/>
<path d="M85.2637 11.5571C85.3725 11.4619 85.4677 11.3667 85.5764 11.2579C87.276 9.59917 88.4181 8.76978 89.0028 8.76978C89.3155 8.76978 89.4786 8.94653 89.4786 9.30004C89.4786 9.54478 89.3291 9.83031 89.0436 10.1702C87.4936 11.9922 86.705 13.5829 86.705 14.9698C86.705 15.4185 86.8273 15.84 87.0721 16.2479C87.1808 16.4382 87.2488 16.5878 87.2488 16.6829C87.2488 16.7781 87.1944 16.8733 87.0992 16.9685C86.9905 17.0773 86.8681 17.1452 86.7185 17.1452C86.3786 17.1452 86.1067 16.9277 85.8756 16.5062C85.658 16.1119 85.5492 15.6224 85.5492 15.0514C85.5492 13.9501 85.9707 12.7264 86.8001 11.3939C85.6852 12.1009 84.6655 13.3518 83.7137 15.1601C83.469 15.5952 83.2106 15.8128 82.9251 15.8128C82.7892 15.8128 82.6668 15.7584 82.5852 15.6632C82.4764 15.5544 82.4084 15.4049 82.4084 15.2281C82.4084 14.793 82.9115 13.6373 83.9177 11.7746C84.4615 10.7685 84.883 10.0343 85.1957 9.57197C85.5085 9.12329 85.7668 8.90574 85.9843 8.90574C86.0931 8.90574 86.1883 8.96013 86.2971 9.05531C86.4058 9.16408 86.4602 9.30004 86.4602 9.4496C86.4602 9.62636 86.3378 9.88469 86.1067 10.2246C85.7668 10.7277 85.4813 11.1764 85.2773 11.5843L85.2637 11.5571Z" fill="#060606"/>
<path d="M90.7432 14.8338V15.0513C90.7432 15.2281 90.784 15.3912 90.8792 15.5136C91.0831 15.8127 91.4231 15.9623 91.8853 15.9623C92.9051 15.9623 94.088 15.1737 95.4204 13.6101C95.6516 13.3381 95.8555 13.2022 96.0187 13.2022C96.1139 13.2022 96.1954 13.243 96.2634 13.3381C96.3178 13.4061 96.3314 13.4605 96.3314 13.5149C96.3314 13.8276 95.9371 14.3715 95.1621 15.1329C94.5503 15.7311 93.8976 16.207 93.2042 16.5877C92.5108 16.9684 91.8717 17.1452 91.2735 17.1452C90.6752 17.1452 90.1858 16.9276 89.8323 16.5061C89.6011 16.207 89.4788 15.8127 89.4788 15.3096C89.4788 13.9364 90.1314 12.5903 91.4231 11.2579C92.47 10.1838 93.3946 9.63989 94.1696 9.63989C94.3871 9.63989 94.5774 9.70787 94.7406 9.83024C94.9581 10.007 95.0533 10.2245 95.0533 10.4965C95.0533 10.9316 94.8494 11.4618 94.4551 12.0873C93.6257 13.3925 92.3884 14.2899 90.7432 14.793V14.8338ZM91.0152 13.882C91.5862 13.6917 92.0349 13.4605 92.3612 13.2158C92.9323 12.7807 93.381 12.2776 93.7209 11.7202C93.8432 11.5298 93.8976 11.3531 93.8976 11.1899C93.8976 11.0267 93.8161 10.9452 93.6665 10.9452C93.4489 10.9452 93.1498 11.1083 92.7555 11.421C92.0485 11.9785 91.4774 12.7943 91.0016 13.8684L91.0152 13.882Z" fill="#060606"/>
<path d="M99.1458 12.5631C99.948 11.7065 100.859 10.8771 101.906 10.0613C102.287 9.7622 102.681 9.49026 103.102 9.24553C103.32 9.12316 103.442 9.05518 103.51 9.05518C103.633 9.05518 103.755 9.15035 103.877 9.32711C103.945 9.42228 103.986 9.51746 103.986 9.59904C103.986 9.7486 103.837 9.93895 103.524 10.1973C102.694 10.8635 102.273 11.353 102.273 11.6929C102.273 11.8833 102.382 11.9784 102.586 11.9784C102.939 11.9784 103.537 11.6929 104.394 11.1083C104.544 11.0131 104.666 10.9587 104.761 10.9587C104.829 10.9587 104.897 10.9859 104.952 11.0539C105.019 11.1218 105.06 11.2034 105.06 11.285C105.06 11.5297 104.72 11.9104 104.041 12.4135C103.32 12.9574 102.64 13.2157 102.001 13.2157C101.743 13.2157 101.498 13.1477 101.28 13.0118C101.09 12.903 100.995 12.699 100.995 12.3999C100.995 12.196 101.076 11.9648 101.253 11.7065C100.614 12.1688 99.8528 12.9438 98.9826 14.0587C98.4796 14.7385 97.9765 15.5815 97.4734 16.5876C97.2831 16.9683 97.0519 17.1451 96.78 17.1451C96.4809 17.1451 96.3313 17.0091 96.3313 16.7236C96.3313 16.4381 96.5624 15.7039 97.0383 14.4938C97.7453 12.699 98.466 11.3122 99.241 10.3197C99.7169 9.70781 100.111 9.40869 100.424 9.40869C100.533 9.40869 100.628 9.43588 100.723 9.50386C100.832 9.58544 100.886 9.68062 100.886 9.81658C100.886 9.95255 100.805 10.1157 100.641 10.3333C100.614 10.374 100.397 10.646 99.9888 11.149C99.6217 11.6249 99.3361 12.1008 99.1458 12.5767V12.5631Z" fill="#060606"/>
</svg>
