<svg width="21" height="20" viewBox="0 0 21 20" fill="none" xmlns="http://www.w3.org/2000/svg">
<path d="M1.125 7.41605C1.125 7.04666 1.31302 6.7001 1.62957 6.48603L9.42957 1.21117C9.84592 0.929609 10.4041 0.92961 10.8204 1.21117L18.6204 6.48603C18.937 6.7001 19.125 7.04665 19.125 7.41605V17.2882C19.125 18.2336 18.3191 19 17.325 19H2.925C1.93089 19 1.125 18.2336 1.125 17.2882V7.41605Z" fill="black"/>
<path d="M5.625 15.0625H14.625M9.42957 1.21117L1.62957 6.48603C1.31302 6.7001 1.125 7.04666 1.125 7.41605V17.2882C1.125 18.2336 1.93089 19 2.925 19H17.325C18.3191 19 19.125 18.2336 19.125 17.2882V7.41605C19.125 7.04665 18.937 6.7001 18.6204 6.48603L10.8204 1.21117C10.4041 0.92961 9.84592 0.929609 9.42957 1.21117Z" stroke="white" stroke-width="2" stroke-linecap="round" stroke-linejoin="round"/>
</svg>
