<svg width="275" height="43" viewBox="0 0 275 43" fill="none" xmlns="http://www.w3.org/2000/svg">
<path d="M83.3288 14.4569H72.0474V21.9409H83.3288V14.4569ZM85.2914 41.4004C84.1136 41.4004 83.3288 40.602 83.3288 39.4039V29.9246H72.0474V39.4039C72.0474 40.602 71.2625 41.4004 70.0858 41.4004H65.1803C64.0025 41.4004 63.2188 40.602 63.2188 39.4039V15.454C63.2188 14.257 63.758 12.9101 64.5919 12.0618L68.7116 7.8701C69.5455 7.02177 70.8707 6.47324 72.0474 6.47324H83.3288C84.5066 6.47324 85.8307 7.02177 86.6646 7.8701L90.7853 12.0618C91.6182 12.9101 92.1585 14.257 92.1585 15.454V39.4039C92.1585 40.602 91.3736 41.4004 90.1958 41.4004H85.2914Z" fill="#24BBF8"/>
<path d="M104.377 8.76033V34.0169H113.829C115.006 34.0169 115.79 34.8153 115.79 36.0123V40.0041C115.79 41.2011 115.006 41.9995 113.829 41.9995H104.377C103.2 41.9995 101.876 41.451 101.042 40.6026L96.9211 36.4109C96.0872 35.5637 95.5469 34.2157 95.5469 33.0187V16.2867C95.5469 15.0897 95.7722 13.3311 97.5095 11.8441L102.415 6.76496C103.592 6.76496 104.377 7.56333 104.377 8.76033Z" fill="#24BBF8"/>
<path d="M8.80621 14.4363H1.95622C0.782703 14.4363 0 13.6401 0 12.4453V8.46434C0 7.2695 0.782703 6.47331 1.95622 6.47331H24.4613C25.6359 6.47331 26.4186 7.2695 26.4186 8.46434V12.4453C26.4186 13.6401 25.6359 14.4363 24.4613 14.4363H17.6124V39.3193C17.6124 40.5141 16.8297 41.3103 15.6551 41.3103H10.7635C9.58892 41.3103 8.80621 40.5141 8.80621 39.3193V14.4363Z" fill="#24BBF8"/>
<path d="M29.8423 8.46433C29.8423 7.2695 30.625 6.47331 31.7996 6.47331H36.6912C37.8658 6.47331 38.6485 7.2695 38.6485 8.46433V19.9108H50.8792V8.46433C50.8792 7.2695 51.6619 6.47331 52.8365 6.47331H57.7292C58.9027 6.47331 59.6854 7.2695 59.6854 8.46433V39.3193C59.6854 40.5141 58.9027 41.3103 57.7292 41.3103H52.8365C51.6619 41.3103 50.8792 40.5141 50.8792 39.3193V27.8739H38.6485V39.3193C38.6485 40.5141 37.8658 41.3103 36.6912 41.3103H31.7996C30.625 41.3103 29.8423 40.5141 29.8423 39.3193V8.46433Z" fill="#24BBF8"/>
<path d="M233.257 40.8291H230.968V38.5003H233.257V40.8291Z" fill="#0E4099"/>
<path d="M238.291 40.8296C237.84 40.8296 237.331 40.6189 237.011 40.2941L235.431 38.6854C235.11 38.3595 234.903 37.8425 234.903 37.383V32.4049C234.903 31.9455 235.11 31.4284 235.431 31.1026L237.011 29.495C237.331 29.1691 237.84 28.9584 238.291 28.9584H244.126C244.577 28.9584 244.88 29.2647 244.88 29.7242V31.2568C244.88 31.7163 244.577 32.0215 244.126 32.0215H238.291V37.7654H244.126C244.577 37.7654 244.88 38.0728 244.88 38.5323V40.0638C244.88 40.5233 244.577 40.8296 244.126 40.8296H238.291Z" fill="#0E4099"/>
<path d="M253.918 32.0218H249.588V37.7657H253.918V32.0218ZM246.2 32.4042C246.2 31.9447 246.407 31.4277 246.727 31.1029L248.308 29.4942C248.628 29.1684 249.136 28.9587 249.588 28.9587H253.918C254.37 28.9587 254.878 29.1684 255.197 29.4942L256.778 31.1029C257.099 31.4277 257.305 31.9447 257.305 32.4042V37.3834C257.305 37.8429 257.099 38.3599 256.778 38.6847L255.197 40.2934C254.878 40.6192 254.37 40.8289 253.918 40.8289H249.588C249.136 40.8289 248.628 40.6192 248.308 40.2934L246.727 38.6847C246.407 38.3599 246.2 37.8429 246.2 37.3834V32.4042Z" fill="#0E4099"/>
<path d="M265.965 40.8296C265.513 40.8296 265.212 40.5233 265.212 40.0638V32.0215H262.2V40.0638C262.2 40.5233 261.9 40.8296 261.447 40.8296H259.566C259.114 40.8296 258.813 40.5233 258.813 40.0638V32.4049C258.813 31.9455 259.019 31.4284 259.339 31.1026L260.921 29.495C261.24 29.1691 261.748 28.9584 262.2 28.9584H265.212C265.664 28.9584 266.172 29.1691 266.492 29.495L266.906 29.9164L267.32 29.495C267.641 29.1691 268.149 28.9584 268.599 28.9584H271.612C272.063 28.9584 272.572 29.1691 272.892 29.495L274.472 31.1026C274.793 31.4284 275 31.9455 275 32.4049V40.0638C275 40.5233 274.699 40.8296 274.247 40.8296H272.365C271.913 40.8296 271.612 40.5233 271.612 40.0638V32.0215H268.599V40.0638C268.599 40.5233 268.299 40.8296 267.847 40.8296H265.965Z" fill="#0E4099"/>
<path d="M218.373 32.4399V39.4047C218.373 40.5072 219.251 41.4011 220.335 41.4011H225.24C226.323 41.4011 227.202 40.5072 227.202 39.4047V25.8944L218.373 32.4399Z" fill="#24BBF8"/>
<path d="M225.811 12.0447L221.712 7.87477C221.029 7.1796 220.156 6.72013 219.218 6.54851C218.754 6.46487 218.372 6.79942 218.372 7.27844V19.6786C218.372 19.6862 218.366 19.6862 218.357 19.6862H211.643H206.375C206.367 19.6862 206.36 19.6797 206.36 19.671V7.45224C206.36 6.8798 205.901 6.46053 205.351 6.58218C204.475 6.77444 203.663 7.21979 203.019 7.87477L198.922 12.0447C198.085 12.8963 197.61 14.0347 197.553 15.2317L197.534 15.2219V15.4348C197.534 15.4435 197.531 15.4522 197.531 15.4609V23.4174C197.531 23.4196 197.533 23.4206 197.534 23.4228V32.1158C197.534 33.0195 196.396 33.4214 196.396 33.4214L190.572 40.5708C190.313 40.9032 190.546 41.392 190.963 41.392H197.534C200.319 41.6158 203.155 37.4176 204.989 35.8122C206.568 34.3045 206.389 31.9311 206.363 29.9249H211.643H218.372V29.9705L227.195 23.4304C227.198 23.4261 227.199 23.4217 227.201 23.4174V15.4609C227.201 14.1791 226.701 12.9506 225.811 12.0447Z" fill="#0E4099"/>
<path d="M184.952 31.2019H192.368C192.758 31.2019 193.075 30.8815 193.076 30.4839C193.076 30.4839 193.043 6.31461 193.072 6.31461C191.815 6.31461 190.61 6.82187 189.721 7.72669L185.63 11.888C184.742 12.7917 184.242 14.0169 184.242 15.2954V16.1557V30.4796C184.242 30.8782 184.56 31.2019 184.952 31.2019Z" fill="#0E4099"/>
<path d="M192.628 33.4174H178.812C178.821 32.7874 178.952 31.7164 178.002 31.7392C177.356 31.7164 176.587 31.7131 176.12 32.2486C175.355 33.3001 171.851 35.8472 172.052 37.3723C171.832 39.1113 172.26 41.4336 174.421 41.401C179.482 41.4043 180.545 41.3989 185.799 41.401C186.052 41.401 186.78 41.3478 187.353 40.6418L193.1 33.8975C193.1 33.6324 192.889 33.4174 192.628 33.4174Z" fill="#0E4099"/>
<path d="M215.397 3.42467L212.856 6.00986C212.667 6.20212 212.36 6.20212 212.172 6.00986L209.631 3.42467C209.442 3.23241 209.442 2.92067 209.631 2.7295L212.172 0.144312C212.36 -0.0479474 212.667 -0.0479474 212.856 0.144312L215.397 2.7295C215.586 2.92067 215.586 3.23241 215.397 3.42467Z" fill="#0E4099"/>
<path d="M212.579 8.93108L209.983 11.5706C209.81 11.7476 209.527 11.7476 209.354 11.5706L206.758 8.93108C206.584 8.75403 206.584 8.46727 206.758 8.29022L209.354 5.65072C209.527 5.47367 209.81 5.47367 209.983 5.65072L212.579 8.29022C212.753 8.46727 212.753 8.75403 212.579 8.93108Z" fill="#0E4099"/>
<path d="M218.078 8.94119L215.502 11.5611C215.323 11.7436 215.033 11.7436 214.853 11.5611L212.277 8.94119C212.097 8.75871 212.097 8.46326 212.277 8.28077L214.853 5.66083C215.033 5.47835 215.323 5.47835 215.502 5.66083L218.078 8.28077C218.257 8.46326 218.257 8.75871 218.078 8.94119Z" fill="#0E4099"/>
<path d="M231.587 40.8293H229.298V38.5005H231.587V40.8293Z" fill="#0E4099"/>
<path d="M159.113 31.7066V39.8499C159.113 41.1208 159.898 41.968 161.075 41.968H165.98C167.158 41.968 167.942 41.1208 167.942 39.8499V31.7066H159.113Z" fill="#24BBF8"/>
<path d="M139.002 31.7066V39.8499C139.002 41.1208 139.787 41.968 140.965 41.968H145.87C147.047 41.968 147.832 41.1208 147.832 39.8499V31.7066H139.002Z" fill="#24BBF8"/>
<path d="M166.568 12.5887L162.448 8.39696C161.614 7.54972 160.289 7.00009 159.112 7.00009H147.831C146.653 7.00009 145.329 7.54972 144.495 8.39696L140.374 12.5887C139.541 13.437 139.002 14.7839 139.002 15.9809V18.7258V19.8163C139.002 20.2758 139.368 20.6494 139.821 20.6494H147.013C147.465 20.6494 147.831 20.2758 147.831 19.8163V18.7258V15.8169C147.831 15.3563 148.198 14.9838 148.65 14.9838H158.293C158.746 14.9838 159.112 15.3563 159.112 15.8169V21.6346C159.112 22.0952 158.746 22.4678 158.293 22.4678H149.485H147.831H141.723H139.821H129.918C129.411 22.4678 129 22.8859 129 23.4019V29.5173C129 30.0332 129.411 30.4514 129.918 30.4514H139.444H141.723H147.831H148.817H159.112L167.127 30.408C167.578 30.4058 167.942 30.0343 167.942 29.5759V15.9809C167.942 14.7839 167.402 13.437 166.568 12.5887Z" fill="#0E4099"/>
<path d="M153.786 33.2751L156.676 36.2144C156.85 36.3914 156.85 36.6782 156.676 36.8542L153.786 39.7945C153.612 39.9705 153.331 39.9705 153.157 39.7945L150.268 36.8542C150.094 36.6782 150.094 36.3914 150.268 36.2144L153.157 33.2751C153.331 33.098 153.612 33.098 153.786 33.2751Z" fill="#0E4099"/>
<path d="M136.054 34.1743H128.014V22.756C128.014 22.4541 127.773 22.2086 127.476 22.2086H119.648C119.392 22.2086 119.185 22.4193 119.185 22.68V33.1956C119.185 34.4611 119.679 35.6744 120.559 36.5694L124.665 40.747C125.553 41.6496 126.757 42.158 128.014 42.158H136.054C137.138 42.158 138.015 41.264 138.015 40.1626V36.1697C138.015 35.0683 137.138 34.1743 136.054 34.1743Z" fill="#24BBF8"/>
<path d="M126.361 7.50082C126.181 7.47801 125.997 7.53775 125.87 7.67027L121.146 12.5604C119.409 14.0474 119.185 15.8071 119.185 17.0041V20.1986C119.185 20.518 119.439 20.7776 119.753 20.7776H127.444C127.759 20.7776 128.013 20.518 128.013 20.1986V9.47664C128.013 8.38825 127.364 7.62899 126.361 7.50082Z" fill="#0E4099"/>
<path d="M120.993 9.44276L118.344 12.1376C118.185 12.2995 117.928 12.2995 117.769 12.1376L115.119 9.44276C114.96 9.28091 114.96 9.01805 115.119 8.8562L117.769 6.1624C117.928 6.00055 118.185 6.00055 118.344 6.1624L120.993 8.8562C121.152 9.01805 121.152 9.28091 120.993 9.44276Z" fill="#0E4099"/>
<path d="M124.965 5.40223L122.316 8.09712C122.157 8.25897 121.899 8.25897 121.74 8.09712L119.091 5.40223C118.932 5.24038 118.932 4.97752 119.091 4.81567L121.74 2.12187C121.899 1.96002 122.157 1.96002 122.316 2.12187L124.965 4.81567C125.124 4.97752 125.124 5.24038 124.965 5.40223Z" fill="#0E4099"/>
</svg>
