<svg width="21" height="22" viewBox="0 0 21 22" fill="none" xmlns="http://www.w3.org/2000/svg">
<g clip-path="url(#clip0_2_6465)">
<path d="M10.5 0.499756C13.3991 0.499756 16.0244 1.67543 17.9244 3.57544C19.8244 5.4754 21 8.10065 21 10.9998C21 13.8989 19.8244 16.5242 17.9244 18.4242C16.0244 20.3242 13.3991 21.4998 10.5 21.4998C7.60118 21.4998 4.97565 20.3242 3.07564 18.4242C1.17563 16.5242 0 13.8986 0 10.9998C0 8.10065 1.17563 5.4754 3.07564 3.57544C4.97565 1.67543 7.60085 0.499756 10.5 0.499756Z" fill="#4D4D4D"/>
<path d="M10.5001 1.30371C13.1774 1.30371 15.6017 2.38923 17.3563 4.14376C19.1108 5.89836 20.1964 8.32259 20.1964 11C20.1964 13.6774 19.1108 16.1017 17.3562 17.8562C15.6017 19.6108 13.1774 20.6964 10.5001 20.6964C7.82259 20.6964 5.39836 19.6108 3.64376 17.8563C1.88923 16.1017 0.803711 13.6774 0.803711 11C0.803711 8.32259 1.88923 5.89836 3.64376 4.14376C5.39836 2.38923 7.82259 1.30371 10.5001 1.30371Z" fill="white"/>
<path d="M18.8122 7.88122H2.18799C3.45065 4.51774 6.69548 2.12402 10.5001 2.12402C14.3045 2.12402 17.5495 4.51774 18.8122 7.88122Z" fill="#00732F"/>
<path d="M2.11096 13.9053H18.8891C17.6858 17.3804 14.3845 19.8761 10.5001 19.8761C6.61542 19.8761 3.3144 17.3804 2.11096 13.9053Z" fill="black"/>
<path d="M6.6815 2.98535V19.0145C3.6906 17.5869 1.62402 14.5349 1.62402 10.9999C1.62402 7.46487 3.6906 4.41294 6.6815 2.98535Z" fill="#FF0000"/>
</g>
<defs>
<clipPath id="clip0_2_6465">
<rect width="21" height="21" fill="white" transform="translate(0 0.5)"/>
</clipPath>
</defs>
</svg>
